<svg id="svg" version="1.1" xmlns="http://www.w3.org/2000/svg" xmlns:xlink="http://www.w3.org/1999/xlink" width="400" height="400" viewBox="0, 0, 400,400"><g id="svgg"><path id="path0" d="M0.000 200.000 L 0.000 400.000 200.000 400.000 L 400.000 400.000 400.000 200.000 L 400.000 0.000 200.000 0.000 L 0.000 0.000 0.000 200.000 M38.248 189.506 C 38.495 189.668,39.266 190.932,39.962 192.315 C 41.431 195.236,41.454 195.234,42.991 192.019 C 44.130 189.635,45.304 188.723,46.377 189.386 C 46.902 189.710,46.957 199.056,46.436 199.378 C 45.394 200.022,44.832 199.070,44.717 196.464 L 44.600 193.800 43.409 196.116 C 41.921 199.009,41.048 199.051,39.600 196.301 C 38.292 193.818,38.000 193.904,38.000 196.776 C 38.000 199.240,37.718 199.774,36.636 199.359 C 35.803 199.039,35.676 189.797,36.500 189.465 C 37.242 189.166,37.747 189.178,38.248 189.506 M67.073 194.000 C 69.456 199.238,69.399 199.038,68.600 199.345 C 67.670 199.702,66.817 199.207,66.553 198.156 C 66.178 196.663,61.767 196.707,61.196 198.210 C 60.751 199.380,59.738 199.898,59.115 199.275 C 58.806 198.966,59.163 197.727,60.367 194.922 C 63.580 187.439,64.058 187.373,67.073 194.000 M83.120 189.680 C 83.384 189.944,83.600 190.943,83.600 191.901 L 83.600 193.642 85.700 193.521 L 87.800 193.400 87.920 191.535 C 88.048 189.557,88.828 188.793,89.851 189.642 C 91.457 190.975,90.341 200.013,88.651 199.364 C 88.186 199.186,88.000 198.611,88.000 197.357 L 88.000 195.600 85.800 195.600 L 83.600 195.600 83.600 197.151 C 83.600 198.816,82.803 199.840,81.805 199.457 C 81.173 199.215,80.864 190.070,81.467 189.467 C 81.876 189.057,82.589 189.149,83.120 189.680 M105.134 189.721 C 105.372 190.007,105.619 191.852,105.683 193.821 L 105.800 197.400 107.700 197.522 C 111.281 197.752,110.125 199.600,106.400 199.600 C 103.126 199.600,103.200 199.720,103.200 194.391 C 103.200 189.840,103.313 189.375,104.451 189.232 C 104.589 189.214,104.897 189.434,105.134 189.721 M129.600 190.347 C 132.083 192.097,132.501 195.268,130.553 197.583 C 126.985 201.823,119.778 198.334,121.232 193.070 C 122.163 189.698,126.621 188.247,129.600 190.347 M150.181 189.766 C 152.500 190.735,153.138 193.354,151.547 195.376 L 150.694 196.461 151.520 197.577 C 152.135 198.409,152.230 198.810,151.893 199.147 C 151.132 199.908,150.489 199.663,149.358 198.180 C 148.126 196.565,146.684 196.410,146.476 197.871 C 146.316 198.995,145.477 199.681,144.651 199.364 C 143.805 199.039,143.664 189.802,144.500 189.465 C 145.540 189.045,148.879 189.222,150.181 189.766 M167.120 189.680 C 168.657 191.217,167.464 200.094,165.805 199.457 C 165.173 199.215,164.864 190.070,165.467 189.467 C 165.876 189.057,166.589 189.149,167.120 189.680 M197.448 189.506 C 197.695 189.668,198.466 190.932,199.162 192.315 C 200.631 195.236,200.654 195.234,202.191 192.019 C 203.330 189.635,204.504 188.723,205.577 189.386 C 206.102 189.710,206.157 199.056,205.636 199.378 C 204.594 200.022,204.032 199.070,203.917 196.464 L 203.800 193.800 202.609 196.116 C 201.121 199.009,200.248 199.051,198.800 196.301 C 197.492 193.818,197.200 193.904,197.200 196.776 C 197.200 199.240,196.918 199.774,195.836 199.359 C 195.003 199.039,194.876 189.797,195.700 189.465 C 196.442 189.166,196.947 189.178,197.448 189.506 M226.273 194.000 C 228.656 199.238,228.599 199.038,227.800 199.345 C 226.870 199.702,226.017 199.207,225.753 198.156 C 225.378 196.663,220.967 196.707,220.396 198.210 C 219.951 199.380,218.938 199.898,218.315 199.275 C 218.006 198.966,218.363 197.727,219.567 194.922 C 222.780 187.439,223.258 187.373,226.273 194.000 M242.330 189.562 C 242.702 189.762,243.801 191.022,244.773 192.362 C 246.983 195.413,247.200 195.402,247.200 192.243 C 247.200 190.250,247.344 189.630,247.851 189.436 C 249.243 188.901,249.600 189.913,249.600 194.400 C 249.600 200.781,248.503 201.228,244.900 196.313 L 242.800 193.448 242.800 196.075 C 242.800 198.823,242.217 199.922,241.005 199.457 C 240.512 199.268,240.400 198.347,240.400 194.479 C 240.400 189.042,240.566 188.619,242.330 189.562 M270.074 190.040 C 271.283 190.687,270.815 191.820,269.389 191.698 C 265.828 191.392,265.497 191.440,264.748 192.364 C 262.840 194.721,264.901 198.092,267.805 197.363 C 268.514 197.185,268.786 196.805,268.877 195.862 C 269.074 193.841,270.952 194.021,271.123 196.077 C 271.457 200.101,264.233 200.732,262.228 196.855 C 259.791 192.142,265.209 187.436,270.074 190.040 M291.073 194.000 C 293.456 199.238,293.399 199.038,292.600 199.345 C 291.670 199.702,290.817 199.207,290.553 198.156 C 290.178 196.663,285.767 196.707,285.196 198.210 C 284.751 199.380,283.738 199.898,283.115 199.275 C 282.806 198.966,283.163 197.727,284.367 194.922 C 287.580 187.439,288.058 187.373,291.073 194.000 M307.130 189.562 C 307.502 189.762,308.601 191.022,309.573 192.362 C 311.783 195.413,312.000 195.402,312.000 192.243 C 312.000 190.250,312.144 189.630,312.651 189.436 C 314.043 188.901,314.400 189.913,314.400 194.400 C 314.400 200.781,313.303 201.228,309.700 196.313 L 307.600 193.448 307.600 196.075 C 307.600 198.823,307.017 199.922,305.805 199.457 C 305.312 199.268,305.200 198.347,305.200 194.479 C 305.200 189.042,305.366 188.619,307.130 189.562 M327.840 189.506 C 328.082 189.668,328.760 190.565,329.345 191.500 C 330.603 193.508,330.942 193.590,331.583 192.042 C 332.085 190.829,333.429 189.196,333.916 189.206 C 335.236 189.235,335.160 189.999,333.557 192.827 C 332.591 194.532,331.799 196.513,331.687 197.502 C 331.382 200.215,329.603 200.347,329.597 197.657 C 329.595 196.674,329.025 195.204,327.843 193.134 C 326.583 190.929,326.213 189.947,326.526 189.634 C 327.033 189.127,327.242 189.107,327.840 189.506 M349.120 189.680 C 350.640 191.200,349.487 199.992,347.851 199.364 C 347.005 199.039,346.864 189.802,347.700 189.465 C 348.482 189.149,348.608 189.168,349.120 189.680 M125.343 191.600 C 122.210 192.851,123.037 197.333,126.400 197.333 C 127.868 197.333,129.600 195.746,129.600 194.400 C 129.600 192.640,127.008 190.935,125.343 191.600 M146.667 191.467 C 145.764 192.370,146.420 194.800,147.567 194.800 C 149.426 194.800,150.000 194.415,150.000 193.171 C 150.000 191.668,147.661 190.472,146.667 191.467 M63.264 193.419 C 62.598 194.882,62.681 195.200,63.733 195.200 C 65.070 195.200,65.247 194.852,64.574 193.549 C 63.851 192.152,63.842 192.151,63.264 193.419 M222.464 193.419 C 221.798 194.882,221.881 195.200,222.933 195.200 C 224.270 195.200,224.447 194.852,223.774 193.549 C 223.051 192.152,223.042 192.151,222.464 193.419 M287.264 193.419 C 286.598 194.882,286.681 195.200,287.733 195.200 C 289.070 195.200,289.247 194.852,288.574 193.549 C 287.851 192.152,287.842 192.151,287.264 193.419 M158.000 220.500 C 158.001 221.726,153.836 241.853,153.489 242.300 C 152.862 243.109,144.049 242.994,143.734 242.172 C 143.543 241.674,147.012 223.577,147.850 220.700 C 148.110 219.806,158.000 219.611,158.000 220.500 M180.304 221.685 L 181.097 223.370 181.957 221.685 L 182.816 220.000 187.808 220.000 C 191.932 220.000,192.800 220.102,192.800 220.588 C 192.800 221.785,181.813 242.393,181.173 242.397 C 180.529 242.400,169.600 221.820,169.600 220.603 C 169.600 220.098,170.406 220.000,174.556 220.000 L 179.511 220.000 180.304 221.685 M214.357 220.900 C 214.542 221.395,215.468 225.445,216.413 229.900 C 217.358 234.355,218.252 238.000,218.398 238.000 C 218.544 238.000,219.441 234.175,220.392 229.500 C 221.344 224.825,222.204 220.775,222.304 220.500 C 222.436 220.137,223.841 220.000,227.443 220.000 C 231.142 220.000,232.400 220.127,232.400 220.500 C 232.401 221.726,228.236 241.853,227.889 242.300 C 227.431 242.892,210.166 243.020,209.249 242.439 C 208.680 242.078,203.900 220.886,204.257 220.307 C 204.794 219.439,214.012 219.980,214.357 220.900 M254.704 221.685 L 255.497 223.370 256.357 221.685 L 257.216 220.000 262.208 220.000 C 266.332 220.000,267.200 220.102,267.200 220.588 C 267.200 221.785,256.213 242.393,255.573 242.397 C 254.929 242.400,244.000 221.820,244.000 220.603 C 244.000 220.098,244.806 220.000,248.956 220.000 L 253.911 220.000 254.704 221.685 M288.754 220.900 C 289.517 222.958,293.297 241.571,293.071 242.160 C 292.795 242.878,284.720 243.117,283.649 242.439 C 283.080 242.078,278.300 220.886,278.657 220.307 C 279.194 219.439,288.412 219.980,288.754 220.900 " stroke="none" fill="#fbfbfb" fill-rule="evenodd"></path><path id="path1" d="M44.676 190.475 C 44.360 190.984,43.584 192.378,42.951 193.574 C 41.401 196.501,41.208 196.469,39.493 193.004 C 37.330 188.632,36.800 188.906,36.800 194.400 C 36.800 197.067,36.958 198.800,37.200 198.800 C 37.433 198.800,37.600 197.467,37.600 195.600 C 37.600 191.723,37.915 191.630,39.656 194.999 C 41.324 198.223,41.522 198.221,43.125 194.970 C 44.795 191.583,45.366 191.765,45.517 195.732 C 45.581 197.419,45.812 198.800,46.030 198.800 C 46.275 198.800,46.383 197.092,46.313 194.333 C 46.195 189.659,45.784 188.692,44.676 190.475 M61.840 193.335 C 59.740 197.831,59.407 198.800,59.965 198.800 C 60.196 198.800,60.498 198.350,60.636 197.800 C 60.875 196.846,61.024 196.800,63.836 196.800 C 66.648 196.800,66.796 196.846,67.036 197.800 C 67.174 198.350,67.540 198.800,67.849 198.800 C 68.316 198.800,68.302 198.548,67.764 197.300 C 67.408 196.475,66.847 195.170,66.517 194.400 C 63.982 188.481,64.096 188.507,61.840 193.335 M145.067 189.867 C 144.627 190.306,144.754 198.800,145.200 198.800 C 145.420 198.800,145.600 198.260,145.600 197.600 C 145.600 196.469,145.691 196.400,147.184 196.400 C 148.741 196.400,149.073 196.599,150.181 198.199 C 150.978 199.350,151.391 198.663,150.614 197.478 C 149.998 196.538,150.017 196.410,150.983 194.988 C 152.172 193.235,152.186 193.121,151.408 191.615 C 150.691 190.229,145.998 188.935,145.067 189.867 M203.876 190.475 C 203.560 190.984,202.784 192.378,202.151 193.574 C 200.601 196.501,200.408 196.469,198.693 193.004 C 196.530 188.632,196.000 188.906,196.000 194.400 C 196.000 197.067,196.158 198.800,196.400 198.800 C 196.633 198.800,196.800 197.467,196.800 195.600 C 196.800 191.723,197.115 191.630,198.856 194.999 C 200.524 198.223,200.722 198.221,202.325 194.970 C 203.995 191.583,204.566 191.765,204.717 195.732 C 204.781 197.419,205.012 198.800,205.230 198.800 C 205.475 198.800,205.583 197.092,205.513 194.333 C 205.395 189.659,204.984 188.692,203.876 190.475 M221.040 193.335 C 218.940 197.831,218.607 198.800,219.165 198.800 C 219.396 198.800,219.698 198.350,219.836 197.800 C 220.075 196.846,220.224 196.800,223.036 196.800 C 225.848 196.800,225.996 196.846,226.236 197.800 C 226.374 198.350,226.740 198.800,227.049 198.800 C 227.516 198.800,227.502 198.548,226.964 197.300 C 226.608 196.475,226.047 195.170,225.717 194.400 C 223.182 188.481,223.296 188.507,221.040 193.335 M285.840 193.335 C 283.740 197.831,283.407 198.800,283.965 198.800 C 284.196 198.800,284.498 198.350,284.636 197.800 C 284.875 196.846,285.024 196.800,287.836 196.800 C 290.648 196.800,290.796 196.846,291.036 197.800 C 291.174 198.350,291.540 198.800,291.849 198.800 C 292.316 198.800,292.302 198.548,291.764 197.300 C 291.408 196.475,290.847 195.170,290.517 194.400 C 287.982 188.481,288.096 188.507,285.840 193.335 M81.600 194.400 C 81.600 198.044,81.703 198.800,82.200 198.800 C 82.645 198.800,82.800 198.331,82.800 196.982 L 82.800 195.165 85.700 195.282 L 88.600 195.400 88.723 197.100 C 88.976 200.594,89.600 198.672,89.600 194.400 C 89.600 191.733,89.442 190.000,89.200 190.000 C 88.980 190.000,88.800 190.804,88.800 191.786 C 88.800 193.895,88.164 194.400,85.506 194.400 C 83.318 194.400,82.800 193.887,82.800 191.720 C 82.800 190.458,82.640 190.000,82.200 190.000 C 81.703 190.000,81.600 190.756,81.600 194.400 M104.087 194.500 L 104.200 199.000 106.300 199.000 C 108.867 199.000,109.116 198.248,106.606 198.078 L 104.800 197.956 104.800 193.978 C 104.800 191.509,104.643 190.000,104.387 190.000 C 104.121 190.000,104.014 191.599,104.087 194.500 M124.126 190.585 C 121.785 191.604,120.988 194.391,122.382 196.678 C 124.027 199.376,128.773 199.376,130.418 196.678 C 132.840 192.705,128.629 188.627,124.126 190.585 M165.600 194.400 C 165.600 198.044,165.703 198.800,166.200 198.800 C 166.697 198.800,166.800 198.044,166.800 194.400 C 166.800 190.756,166.697 190.000,166.200 190.000 C 165.703 190.000,165.600 190.756,165.600 194.400 M240.800 194.400 C 240.800 198.044,240.903 198.800,241.400 198.800 C 241.880 198.800,242.000 198.203,242.000 195.824 C 242.000 191.853,242.330 191.829,245.194 195.592 C 248.526 199.969,248.800 199.878,248.800 194.400 C 248.800 191.733,248.642 190.000,248.400 190.000 C 248.169 190.000,248.000 191.259,248.000 192.976 C 248.000 197.322,247.335 197.189,243.702 192.115 C 241.289 188.746,240.800 189.131,240.800 194.400 M264.955 190.392 C 262.308 191.462,261.582 195.072,263.567 197.294 C 264.875 198.758,268.370 199.187,269.739 198.051 C 270.452 197.459,270.659 195.200,270.000 195.200 C 269.780 195.200,269.600 195.719,269.600 196.353 C 269.600 198.373,266.220 198.682,264.369 196.831 C 261.808 194.269,264.922 189.153,268.030 190.816 C 268.477 191.055,269.147 191.178,269.521 191.088 C 270.036 190.965,269.928 190.814,269.074 190.463 C 267.776 189.929,266.169 189.902,264.955 190.392 M305.600 194.400 C 305.600 198.044,305.703 198.800,306.200 198.800 C 306.680 198.800,306.800 198.203,306.800 195.824 C 306.800 191.853,307.130 191.829,309.994 195.592 C 313.326 199.969,313.600 199.878,313.600 194.400 C 313.600 191.733,313.442 190.000,313.200 190.000 C 312.969 190.000,312.800 191.259,312.800 192.976 C 312.800 197.322,312.135 197.189,308.502 192.115 C 306.089 188.746,305.600 189.131,305.600 194.400 M327.532 191.300 C 329.361 194.284,330.400 196.588,330.400 197.660 C 330.400 198.287,330.580 198.800,330.800 198.800 C 331.020 198.800,331.200 198.096,331.200 197.235 C 331.200 196.150,331.679 194.829,332.758 192.935 C 333.614 191.431,334.256 190.137,334.184 190.060 C 333.876 189.730,333.165 190.556,332.149 192.423 C 330.853 194.804,330.563 194.774,329.000 192.088 C 328.340 190.954,327.560 190.021,327.267 190.013 C 326.880 190.004,326.953 190.355,327.532 191.300 M348.000 194.400 C 348.000 197.067,348.158 198.800,348.400 198.800 C 348.642 198.800,348.800 197.067,348.800 194.400 C 348.800 191.733,348.642 190.000,348.400 190.000 C 348.158 190.000,348.000 191.733,348.000 194.400 M128.176 191.191 C 129.971 191.873,130.745 194.143,129.788 195.916 C 127.551 200.060,120.925 197.182,122.946 192.944 C 123.871 191.005,125.898 190.325,128.176 191.191 M150.171 191.429 C 151.901 193.158,150.609 195.200,147.786 195.200 L 145.600 195.200 145.600 193.000 L 145.600 190.800 147.571 190.800 C 148.830 190.800,149.770 191.027,150.171 191.429 M64.902 192.779 C 65.950 194.656,65.700 195.774,64.200 195.904 C 62.086 196.088,61.784 195.576,62.626 193.236 C 63.452 190.940,63.831 190.863,64.902 192.779 M224.102 192.779 C 225.150 194.656,224.900 195.774,223.400 195.904 C 221.286 196.088,220.984 195.576,221.826 193.236 C 222.652 190.940,223.031 190.863,224.102 192.779 M288.902 192.779 C 289.950 194.656,289.700 195.774,288.200 195.904 C 286.086 196.088,285.784 195.576,286.626 193.236 C 287.452 190.940,287.831 190.863,288.902 192.779 M148.547 220.885 C 148.382 221.152,148.118 222.097,147.961 222.985 C 147.559 225.249,146.874 228.677,146.400 230.800 C 146.179 231.790,145.802 233.590,145.564 234.800 C 145.325 236.010,144.968 237.810,144.771 238.800 C 144.032 242.512,143.708 242.186,148.258 242.314 C 152.731 242.439,153.600 242.081,153.600 240.118 C 153.600 239.554,153.764 238.442,153.965 237.646 C 154.319 236.246,154.606 234.861,155.590 229.800 C 155.846 228.480,156.209 226.770,156.395 226.000 C 156.581 225.230,156.855 223.655,157.004 222.500 L 157.275 220.400 153.061 220.400 C 150.189 220.400,148.752 220.555,148.547 220.885 M170.400 220.842 C 170.400 221.100,171.996 224.391,173.947 228.156 C 175.897 231.920,178.257 236.485,179.191 238.300 C 181.299 242.396,181.013 242.471,183.781 237.100 C 185.056 234.625,187.427 230.058,189.050 226.951 C 192.775 219.818,192.886 220.350,187.703 220.486 L 183.405 220.600 182.576 222.200 C 182.120 223.080,181.500 223.800,181.200 223.800 C 180.900 223.800,180.280 223.080,179.824 222.200 L 178.995 220.600 174.697 220.486 C 171.612 220.405,170.400 220.505,170.400 220.842 M204.952 220.981 C 204.829 221.300,204.844 221.748,204.985 221.975 C 205.125 222.202,205.411 223.336,205.619 224.494 C 205.827 225.652,206.160 227.320,206.359 228.200 C 207.561 233.532,208.252 236.791,208.769 239.568 C 209.309 242.464,209.046 242.387,218.471 242.394 C 227.485 242.401,228.000 242.278,228.000 240.118 C 228.000 239.554,228.167 238.442,228.372 237.646 C 228.576 236.851,228.954 235.120,229.210 233.800 C 230.138 229.028,230.475 227.375,230.801 226.000 C 230.984 225.230,231.255 223.655,231.404 222.500 L 231.675 220.400 227.461 220.400 C 222.833 220.400,222.818 220.408,222.361 222.985 C 221.955 225.270,221.271 228.692,220.799 230.800 C 220.110 233.874,219.593 236.530,219.339 238.300 C 219.160 239.555,218.914 240.000,218.400 240.000 C 217.885 240.000,217.642 239.557,217.465 238.300 C 217.334 237.365,217.058 235.880,216.853 235.000 C 216.264 232.470,215.540 229.141,215.200 227.400 C 214.286 222.717,213.957 221.430,213.550 220.940 C 212.885 220.138,205.261 220.175,204.952 220.981 M244.800 220.842 C 244.800 221.100,246.396 224.391,248.347 228.156 C 250.297 231.920,252.657 236.485,253.591 238.300 C 255.699 242.396,255.413 242.471,258.181 237.100 C 259.456 234.625,261.827 230.058,263.450 226.951 C 267.175 219.818,267.286 220.350,262.103 220.486 L 257.805 220.600 256.976 222.200 C 256.520 223.080,255.900 223.800,255.600 223.800 C 255.300 223.800,254.680 223.080,254.224 222.200 L 253.395 220.600 249.097 220.486 C 246.012 220.405,244.800 220.505,244.800 220.842 M279.405 220.792 C 279.272 221.007,279.339 221.862,279.553 222.692 C 279.768 223.521,280.157 225.280,280.418 226.600 C 280.679 227.920,281.031 229.540,281.200 230.200 C 281.369 230.860,281.722 232.480,281.984 233.800 C 282.246 235.120,282.618 236.830,282.812 237.600 C 283.006 238.370,283.270 239.674,283.400 240.497 C 283.688 242.333,284.132 242.477,289.000 242.318 C 292.335 242.209,292.592 242.141,292.495 241.400 C 292.367 240.419,291.728 237.159,291.241 235.000 C 290.480 231.624,289.901 228.940,289.600 227.400 C 288.686 222.717,288.357 221.430,287.950 220.940 C 287.415 220.296,279.793 220.164,279.405 220.792 " stroke="none" fill="#2d262d" fill-rule="evenodd"></path><path id="path2" d="M36.573 190.127 C 36.130 191.279,36.592 198.933,37.110 199.038 C 37.390 199.094,37.436 199.049,37.210 198.937 C 36.317 198.494,36.699 189.880,37.601 190.116 C 38.041 190.231,38.300 190.162,38.177 189.963 C 37.841 189.420,36.803 189.526,36.573 190.127 M82.100 189.852 C 82.624 190.007,82.800 190.484,82.800 191.749 C 82.800 193.886,83.324 194.400,85.506 194.400 C 88.152 194.400,88.800 193.892,88.800 191.819 C 88.800 190.855,88.985 189.975,89.210 189.863 C 89.436 189.751,89.391 189.705,89.110 189.761 C 88.822 189.818,88.547 190.574,88.479 191.500 C 88.323 193.602,87.709 194.075,85.331 193.923 L 83.400 193.800 83.200 191.803 C 83.037 190.178,82.851 189.792,82.200 189.726 C 81.576 189.664,81.554 189.691,82.100 189.852 M103.867 189.867 C 103.498 190.235,103.529 198.709,103.900 198.939 C 104.065 199.042,104.143 197.135,104.074 194.703 C 103.979 191.373,104.078 190.197,104.474 189.946 C 104.765 189.761,104.806 189.610,104.567 189.606 C 104.328 189.603,104.013 189.720,103.867 189.867 M124.938 189.906 C 124.684 190.068,125.342 190.200,126.400 190.200 C 127.458 190.200,128.116 190.068,127.862 189.906 C 127.608 189.744,126.950 189.612,126.400 189.612 C 125.850 189.612,125.192 189.744,124.938 189.906 M144.573 190.127 C 144.073 191.429,144.598 198.934,145.200 199.098 C 145.670 199.226,145.686 199.181,145.274 198.891 C 144.879 198.613,144.779 197.407,144.874 194.059 C 144.999 189.627,144.960 189.117,144.573 190.127 M147.633 189.743 C 147.725 189.821,148.430 190.001,149.200 190.142 C 150.185 190.323,150.422 190.282,150.000 190.006 C 149.458 189.650,147.237 189.403,147.633 189.743 M166.100 189.852 C 166.711 190.032,166.800 190.611,166.800 194.400 C 166.800 198.189,166.711 198.768,166.100 198.948 C 165.556 199.108,165.578 199.136,166.200 199.072 C 166.949 198.994,167.000 198.695,167.000 194.400 C 167.000 190.105,166.949 189.806,166.200 189.728 C 165.578 189.664,165.556 189.692,166.100 189.852 M195.773 190.127 C 195.330 191.279,195.792 198.933,196.310 199.038 C 196.591 199.094,196.636 199.049,196.410 198.937 C 195.517 198.494,195.899 189.880,196.801 190.116 C 197.241 190.231,197.500 190.162,197.377 189.963 C 197.041 189.420,196.003 189.526,195.773 190.127 M247.867 189.867 C 247.720 190.013,247.600 191.363,247.600 192.867 C 247.600 195.201,247.498 195.601,246.900 195.606 C 246.319 195.611,246.299 195.675,246.781 195.980 C 247.773 196.607,248.000 196.054,248.000 193.010 C 248.000 191.030,248.164 190.001,248.500 189.865 C 248.779 189.752,248.809 189.649,248.567 189.632 C 248.328 189.614,248.013 189.720,247.867 189.867 M265.338 189.906 C 265.084 190.068,265.832 190.200,267.000 190.200 C 268.168 190.200,268.916 190.068,268.662 189.906 C 268.408 189.744,267.660 189.612,267.000 189.612 C 266.340 189.612,265.592 189.744,265.338 189.906 M312.667 189.867 C 312.520 190.013,312.400 191.363,312.400 192.867 C 312.400 195.201,312.298 195.601,311.700 195.606 C 311.119 195.611,311.099 195.675,311.581 195.980 C 312.573 196.607,312.800 196.054,312.800 193.010 C 312.800 191.030,312.964 190.001,313.300 189.865 C 313.579 189.752,313.609 189.649,313.367 189.632 C 313.128 189.614,312.813 189.720,312.667 189.867 M347.773 190.127 C 347.330 191.279,347.792 198.933,348.310 199.038 C 348.591 199.094,348.636 199.049,348.410 198.937 C 347.785 198.627,347.870 190.119,348.500 189.865 C 348.892 189.707,348.889 189.656,348.487 189.632 C 348.206 189.614,347.884 189.837,347.773 190.127 M243.375 191.732 C 243.991 192.539,244.576 193.200,244.675 193.200 C 244.953 193.200,243.221 190.860,242.709 190.544 C 242.459 190.389,242.759 190.924,243.375 191.732 M263.201 191.398 C 262.686 191.948,262.339 192.464,262.432 192.546 C 262.524 192.628,263.019 192.178,263.530 191.547 C 264.676 190.135,264.474 190.044,263.201 191.398 M266.200 190.781 C 265.592 191.027,265.759 191.097,266.896 191.073 C 267.786 191.054,268.190 190.914,267.896 190.727 C 267.311 190.356,267.242 190.358,266.200 190.781 M308.175 191.732 C 308.791 192.539,309.376 193.200,309.475 193.200 C 309.753 193.200,308.021 190.860,307.509 190.544 C 307.259 190.389,307.559 190.924,308.175 191.732 M328.600 191.600 C 328.941 192.260,329.311 192.800,329.421 192.800 C 329.531 192.800,329.341 192.260,329.000 191.600 C 328.659 190.940,328.289 190.400,328.179 190.400 C 328.069 190.400,328.259 190.940,328.600 191.600 M125.700 191.076 C 126.085 191.176,126.715 191.176,127.100 191.076 C 127.485 190.975,127.170 190.893,126.400 190.893 C 125.630 190.893,125.315 190.975,125.700 191.076 M63.200 191.553 C 63.200 191.748,63.570 192.004,64.023 192.122 C 64.698 192.298,64.761 192.235,64.374 191.769 C 63.846 191.132,63.200 191.014,63.200 191.553 M222.400 191.553 C 222.400 191.748,222.770 192.004,223.223 192.122 C 223.898 192.298,223.961 192.235,223.574 191.769 C 223.046 191.132,222.400 191.014,222.400 191.553 M264.029 192.254 C 262.899 193.690,262.976 195.314,264.239 196.678 L 265.278 197.800 264.439 196.646 C 263.374 195.182,263.371 193.600,264.429 192.254 C 264.885 191.674,265.168 191.200,265.058 191.200 C 264.948 191.200,264.485 191.674,264.029 192.254 M287.200 191.553 C 287.200 191.748,287.570 192.004,288.023 192.122 C 288.698 192.298,288.761 192.235,288.374 191.769 C 287.846 191.132,287.200 191.014,287.200 191.553 M331.629 192.640 C 330.877 193.916,330.700 194.019,330.090 193.540 C 329.467 193.052,329.453 193.068,329.949 193.700 C 330.728 194.694,330.941 194.598,331.952 192.800 C 333.071 190.810,332.791 190.671,331.629 192.640 M44.239 192.737 C 44.110 192.946,44.274 193.219,44.602 193.346 C 45.054 193.519,45.200 194.261,45.200 196.387 C 45.200 198.802,45.299 199.199,45.900 199.194 C 46.376 199.190,46.446 199.090,46.119 198.882 C 45.836 198.702,45.590 197.363,45.519 195.620 C 45.409 192.890,44.880 191.699,44.239 192.737 M203.439 192.737 C 203.310 192.946,203.474 193.219,203.802 193.346 C 204.254 193.519,204.400 194.261,204.400 196.387 C 204.400 198.802,204.499 199.199,205.100 199.194 C 205.576 199.190,205.646 199.090,205.319 198.882 C 205.036 198.702,204.790 197.363,204.719 195.620 C 204.609 192.890,204.080 191.699,203.439 192.737 M242.267 192.667 C 242.120 192.813,242.000 194.240,242.000 195.837 C 242.000 197.804,241.839 198.795,241.500 198.909 C 241.212 199.006,241.254 199.059,241.600 199.034 C 242.068 199.001,242.226 198.300,242.318 195.850 L 242.435 192.708 243.318 193.454 L 244.200 194.200 243.438 193.300 C 242.576 192.282,242.625 192.308,242.267 192.667 M307.067 192.667 C 306.920 192.813,306.800 194.240,306.800 195.837 C 306.800 197.804,306.639 198.795,306.300 198.909 C 306.012 199.006,306.054 199.059,306.400 199.034 C 306.868 199.001,307.026 198.300,307.118 195.850 L 307.235 192.708 308.118 193.454 L 309.000 194.200 308.238 193.300 C 307.376 192.282,307.425 192.308,307.067 192.667 M129.782 194.400 C 129.782 195.748,129.851 195.904,130.152 195.230 C 130.379 194.721,130.379 194.079,130.152 193.570 C 129.851 192.896,129.782 193.052,129.782 194.400 M262.093 194.400 C 262.093 195.170,262.175 195.485,262.276 195.100 C 262.376 194.715,262.376 194.085,262.276 193.700 C 262.175 193.315,262.093 193.630,262.093 194.400 M150.884 195.099 C 149.688 196.932,149.934 197.165,151.167 195.367 C 151.688 194.605,152.044 193.918,151.958 193.839 C 151.871 193.761,151.388 194.328,150.884 195.099 M62.000 194.881 C 62.000 195.855,64.830 196.523,65.355 195.672 C 65.467 195.492,64.998 195.427,64.314 195.527 C 63.421 195.658,62.918 195.503,62.535 194.979 C 62.088 194.367,62.000 194.351,62.000 194.881 M221.200 194.881 C 221.200 195.855,224.030 196.523,224.555 195.672 C 224.667 195.492,224.198 195.427,223.514 195.527 C 222.621 195.658,222.118 195.503,221.735 194.979 C 221.288 194.367,221.200 194.351,221.200 194.881 M244.791 195.588 C 245.257 196.241,245.842 196.902,246.091 197.056 C 246.341 197.211,246.041 196.676,245.425 195.868 C 244.088 194.115,243.584 193.892,244.791 195.588 M286.000 194.881 C 286.000 195.855,288.830 196.523,289.355 195.672 C 289.467 195.492,288.998 195.427,288.314 195.527 C 287.421 195.658,286.918 195.503,286.535 194.979 C 286.088 194.367,286.000 194.351,286.000 194.881 M309.591 195.588 C 310.057 196.241,310.642 196.902,310.891 197.056 C 311.141 197.211,310.841 196.676,310.225 195.868 C 308.888 194.115,308.384 193.892,309.591 195.588 M82.867 196.871 C 82.817 198.280,82.627 198.786,82.100 198.924 C 81.444 199.096,81.445 199.110,82.113 199.154 C 83.020 199.213,83.294 198.482,83.094 196.542 C 82.940 195.054,82.932 195.066,82.867 196.871 M88.385 197.097 C 88.505 198.122,88.826 198.981,89.110 199.038 C 89.391 199.094,89.436 199.049,89.210 198.937 C 88.985 198.825,88.800 198.039,88.800 197.190 C 88.800 196.342,88.658 195.560,88.485 195.452 C 88.311 195.345,88.266 196.085,88.385 197.097 M262.400 196.264 C 262.400 196.482,262.895 197.097,263.500 197.630 L 264.600 198.600 263.600 197.400 C 263.050 196.740,262.555 196.125,262.500 196.033 C 262.445 195.942,262.400 196.045,262.400 196.264 M149.432 197.807 C 150.436 199.123,151.600 199.663,151.600 198.813 C 151.600 198.599,151.334 198.527,151.009 198.652 C 150.633 198.796,150.250 198.509,149.955 197.861 C 149.700 197.302,149.239 196.747,148.931 196.629 C 148.622 196.510,148.848 197.040,149.432 197.807 M330.060 197.700 C 330.013 198.887,330.146 199.199,330.700 199.194 C 331.154 199.190,331.237 199.084,330.936 198.893 C 330.681 198.730,330.393 198.058,330.296 197.399 C 330.136 196.312,330.114 196.340,330.060 197.700 M59.390 198.030 C 59.246 198.487,59.226 198.959,59.346 199.080 C 59.713 199.447,60.802 198.859,60.768 198.313 C 60.744 197.911,60.693 197.908,60.535 198.300 C 60.199 199.133,59.527 198.859,59.800 198.000 C 59.940 197.560,59.964 197.200,59.854 197.200 C 59.744 197.200,59.535 197.574,59.390 198.030 M218.590 198.030 C 218.446 198.487,218.426 198.959,218.546 199.080 C 218.913 199.447,220.002 198.859,219.968 198.313 C 219.944 197.911,219.893 197.908,219.735 198.300 C 219.399 199.133,218.727 198.859,219.000 198.000 C 219.140 197.560,219.164 197.200,219.054 197.200 C 218.944 197.200,218.735 197.574,218.590 198.030 M283.390 198.030 C 283.246 198.487,283.226 198.959,283.346 199.080 C 283.713 199.447,284.802 198.859,284.768 198.313 C 284.744 197.911,284.693 197.908,284.535 198.300 C 284.199 199.133,283.527 198.859,283.800 198.000 C 283.940 197.560,283.964 197.200,283.854 197.200 C 283.744 197.200,283.535 197.574,283.390 198.030 M68.140 198.075 C 68.275 198.497,68.102 198.817,67.678 198.929 C 67.195 199.056,67.258 199.121,67.900 199.154 C 68.892 199.205,69.009 198.908,68.356 198.000 C 67.987 197.487,67.956 197.498,68.140 198.075 M125.700 197.876 C 126.085 197.976,126.715 197.976,127.100 197.876 C 127.485 197.775,127.170 197.693,126.400 197.693 C 125.630 197.693,125.315 197.775,125.700 197.876 M227.340 198.075 C 227.475 198.497,227.302 198.817,226.878 198.929 C 226.395 199.056,226.458 199.121,227.100 199.154 C 228.092 199.205,228.209 198.908,227.556 198.000 C 227.187 197.487,227.156 197.498,227.340 198.075 M246.962 198.300 C 247.381 198.795,248.011 199.186,248.362 199.168 C 248.904 199.142,248.909 199.103,248.400 198.916 C 248.070 198.795,247.440 198.404,247.000 198.048 C 246.207 197.406,246.206 197.408,246.962 198.300 M266.305 197.883 C 266.802 197.979,267.522 197.975,267.905 197.875 C 268.287 197.775,267.880 197.696,267.000 197.701 C 266.120 197.705,265.807 197.787,266.305 197.883 M292.140 198.075 C 292.275 198.497,292.102 198.817,291.678 198.929 C 291.195 199.056,291.258 199.121,291.900 199.154 C 292.892 199.205,293.009 198.908,292.356 198.000 C 291.987 197.487,291.956 197.498,292.140 198.075 M311.762 198.300 C 312.181 198.795,312.811 199.186,313.162 199.168 C 313.704 199.142,313.709 199.103,313.200 198.916 C 312.870 198.795,312.240 198.404,311.800 198.048 C 311.007 197.406,311.006 197.408,311.762 198.300 M124.938 198.894 C 125.192 199.056,125.850 199.188,126.400 199.188 C 126.950 199.188,127.608 199.056,127.862 198.894 C 128.116 198.732,127.458 198.600,126.400 198.600 C 125.342 198.600,124.684 198.732,124.938 198.894 M265.338 198.894 C 265.592 199.056,266.340 199.188,267.000 199.188 C 267.660 199.188,268.408 199.056,268.662 198.894 C 268.916 198.732,268.168 198.600,267.000 198.600 C 265.832 198.600,265.084 198.732,265.338 198.894 M153.074 220.291 C 156.749 220.414,157.166 220.505,157.327 221.220 C 157.471 221.855,157.496 221.833,157.453 221.106 C 157.402 220.227,157.274 220.199,153.200 220.177 L 149.000 220.154 153.074 220.291 M170.184 220.427 C 170.039 220.661,170.028 220.961,170.160 221.093 C 170.292 221.225,170.400 221.123,170.400 220.867 C 170.400 220.195,178.444 220.226,179.201 220.900 C 179.678 221.325,179.682 221.296,179.232 220.700 C 178.611 219.879,170.670 219.639,170.184 220.427 M183.074 220.719 C 182.703 221.128,182.400 221.624,182.400 221.820 C 182.400 222.017,182.680 221.778,183.023 221.289 C 183.708 220.311,191.681 219.892,192.137 220.810 C 192.249 221.036,192.294 220.990,192.237 220.710 C 192.052 219.787,183.910 219.795,183.074 220.719 M205.061 220.300 C 204.959 220.465,206.787 220.600,209.125 220.600 C 213.256 220.600,213.388 220.628,213.881 221.600 C 214.198 222.225,214.390 222.361,214.394 221.962 C 214.409 220.335,205.972 218.832,205.061 220.300 M227.474 220.291 C 231.149 220.414,231.566 220.505,231.727 221.220 C 231.871 221.855,231.896 221.833,231.853 221.106 C 231.802 220.227,231.674 220.199,227.600 220.177 L 223.400 220.154 227.474 220.291 M244.584 220.427 C 244.439 220.661,244.428 220.961,244.560 221.093 C 244.692 221.225,244.800 221.123,244.800 220.867 C 244.800 220.195,252.844 220.226,253.601 220.900 C 254.078 221.325,254.082 221.296,253.632 220.700 C 253.011 219.879,245.070 219.639,244.584 220.427 M257.474 220.719 C 257.103 221.128,256.800 221.624,256.800 221.820 C 256.800 222.017,257.080 221.778,257.423 221.289 C 258.108 220.311,266.081 219.892,266.537 220.810 C 266.649 221.036,266.694 220.990,266.637 220.710 C 266.452 219.787,258.310 219.795,257.474 220.719 M279.461 220.300 C 279.359 220.465,281.187 220.600,283.525 220.600 C 287.656 220.600,287.788 220.628,288.281 221.600 C 288.598 222.225,288.790 222.361,288.794 221.962 C 288.809 220.335,280.372 218.832,279.461 220.300 M204.856 222.400 C 204.856 222.730,205.011 223.360,205.200 223.800 C 205.417 224.304,205.544 224.378,205.544 224.000 C 205.544 223.670,205.389 223.040,205.200 222.600 C 204.983 222.096,204.856 222.022,204.856 222.400 M279.256 222.400 C 279.256 222.730,279.411 223.360,279.600 223.800 C 279.817 224.304,279.944 224.378,279.944 224.000 C 279.944 223.670,279.789 223.040,279.600 222.600 C 279.383 222.096,279.256 222.022,279.256 222.400 M147.429 224.229 C 147.281 224.815,147.238 225.372,147.332 225.466 C 147.427 225.560,147.624 225.158,147.771 224.571 C 147.919 223.985,147.962 223.428,147.868 223.334 C 147.773 223.240,147.576 223.642,147.429 224.229 M221.829 224.229 C 221.681 224.815,221.638 225.372,221.732 225.466 C 221.827 225.560,222.024 225.158,222.171 224.571 C 222.319 223.985,222.362 223.428,222.268 223.334 C 222.173 223.240,221.976 223.642,221.829 224.229 M146.650 228.050 C 146.317 229.717,146.640 230.040,147.000 228.400 C 147.152 227.709,147.193 227.059,147.091 226.958 C 146.989 226.856,146.791 227.347,146.650 228.050 M221.050 228.050 C 220.909 228.753,220.869 229.402,220.959 229.492 C 221.050 229.583,221.248 229.091,221.400 228.400 C 221.552 227.709,221.593 227.059,221.491 226.958 C 221.389 226.856,221.191 227.347,221.050 228.050 M215.256 228.000 C 215.256 228.330,215.411 228.960,215.600 229.400 C 215.817 229.904,215.944 229.978,215.944 229.600 C 215.944 229.270,215.789 228.640,215.600 228.200 C 215.383 227.696,215.256 227.622,215.256 228.000 M289.656 228.000 C 289.656 228.330,289.811 228.960,290.000 229.400 C 290.217 229.904,290.344 229.978,290.344 229.600 C 290.344 229.270,290.189 228.640,290.000 228.200 C 289.783 227.696,289.656 227.622,289.656 228.000 M187.800 229.200 C 187.459 229.860,187.269 230.400,187.379 230.400 C 187.489 230.400,187.859 229.860,188.200 229.200 C 188.541 228.540,188.731 228.000,188.621 228.000 C 188.511 228.000,188.141 228.540,187.800 229.200 M262.200 229.200 C 261.859 229.860,261.669 230.400,261.779 230.400 C 261.889 230.400,262.259 229.860,262.600 229.200 C 262.941 228.540,263.131 228.000,263.021 228.000 C 262.911 228.000,262.541 228.540,262.200 229.200 M175.000 230.800 C 175.341 231.460,175.711 232.000,175.821 232.000 C 175.931 232.000,175.741 231.460,175.400 230.800 C 175.059 230.140,174.689 229.600,174.579 229.600 C 174.469 229.600,174.659 230.140,175.000 230.800 M206.456 230.000 C 206.456 230.330,206.611 230.960,206.800 231.400 C 207.017 231.904,207.144 231.978,207.144 231.600 C 207.144 231.270,206.989 230.640,206.800 230.200 C 206.583 229.696,206.456 229.622,206.456 230.000 M249.400 230.800 C 249.741 231.460,250.111 232.000,250.221 232.000 C 250.331 232.000,250.141 231.460,249.800 230.800 C 249.459 230.140,249.089 229.600,248.979 229.600 C 248.869 229.600,249.059 230.140,249.400 230.800 M280.856 230.000 C 280.856 230.330,281.011 230.960,281.200 231.400 C 281.417 231.904,281.544 231.978,281.544 231.600 C 281.544 231.270,281.389 230.640,281.200 230.200 C 280.983 229.696,280.856 229.622,280.856 230.000 M145.829 231.829 C 145.681 232.415,145.638 232.972,145.732 233.066 C 145.827 233.160,146.024 232.758,146.171 232.171 C 146.319 231.585,146.362 231.028,146.268 230.934 C 146.173 230.840,145.976 231.242,145.829 231.829 M220.229 231.829 C 220.081 232.415,220.038 232.972,220.132 233.066 C 220.227 233.160,220.424 232.758,220.571 232.171 C 220.719 231.585,220.762 231.028,220.668 230.934 C 220.573 230.840,220.376 231.242,220.229 231.829 M216.056 231.600 C 216.056 231.930,216.211 232.560,216.400 233.000 C 216.617 233.504,216.744 233.578,216.744 233.200 C 216.744 232.870,216.589 232.240,216.400 231.800 C 216.183 231.296,216.056 231.222,216.056 231.600 M290.456 231.600 C 290.456 231.930,290.611 232.560,290.800 233.000 C 291.017 233.504,291.144 233.578,291.144 233.200 C 291.144 232.870,290.989 232.240,290.800 231.800 C 290.583 231.296,290.456 231.222,290.456 231.600 M154.629 234.229 C 154.481 234.815,154.438 235.372,154.532 235.466 C 154.627 235.560,154.824 235.158,154.971 234.571 C 155.119 233.985,155.162 233.428,155.068 233.334 C 154.973 233.240,154.776 233.642,154.629 234.229 M207.256 233.600 C 207.256 233.930,207.411 234.560,207.600 235.000 C 207.817 235.504,207.944 235.578,207.944 235.200 C 207.944 234.870,207.789 234.240,207.600 233.800 C 207.383 233.296,207.256 233.222,207.256 233.600 M229.029 234.229 C 228.881 234.815,228.838 235.372,228.932 235.466 C 229.027 235.560,229.224 235.158,229.371 234.571 C 229.519 233.985,229.562 233.428,229.468 233.334 C 229.373 233.240,229.176 233.642,229.029 234.229 M281.656 233.600 C 281.656 233.930,281.811 234.560,282.000 235.000 C 282.217 235.504,282.344 235.578,282.344 235.200 C 282.344 234.870,282.189 234.240,282.000 233.800 C 281.783 233.296,281.656 233.222,281.656 233.600 M145.029 235.829 C 144.881 236.415,144.838 236.972,144.932 237.066 C 145.027 237.160,145.224 236.758,145.371 236.171 C 145.519 235.585,145.562 235.028,145.468 234.934 C 145.373 234.840,145.176 235.242,145.029 235.829 M216.856 235.200 C 216.856 235.530,217.011 236.160,217.200 236.600 C 217.417 237.104,217.544 237.178,217.544 236.800 C 217.544 236.470,217.389 235.840,217.200 235.400 C 216.983 234.896,216.856 234.822,216.856 235.200 M219.429 235.829 C 219.281 236.415,219.238 236.972,219.332 237.066 C 219.427 237.160,219.624 236.758,219.771 236.171 C 219.919 235.585,219.962 235.028,219.868 234.934 C 219.773 234.840,219.576 235.242,219.429 235.829 M291.256 235.200 C 291.256 235.530,291.411 236.160,291.600 236.600 C 291.817 237.104,291.944 237.178,291.944 236.800 C 291.944 236.470,291.789 235.840,291.600 235.400 C 291.383 234.896,291.256 234.822,291.256 235.200 M153.829 238.229 C 153.681 238.815,153.638 239.372,153.732 239.466 C 153.827 239.560,154.024 239.158,154.171 238.571 C 154.319 237.985,154.362 237.428,154.268 237.334 C 154.173 237.240,153.976 237.642,153.829 238.229 M228.229 238.229 C 228.081 238.815,228.038 239.372,228.132 239.466 C 228.227 239.560,228.424 239.158,228.571 238.571 C 228.719 237.985,228.762 237.428,228.668 237.334 C 228.573 237.240,228.376 237.642,228.229 238.229 M144.229 239.829 C 144.081 240.415,144.038 240.972,144.132 241.066 C 144.227 241.160,144.424 240.758,144.571 240.171 C 144.719 239.585,144.762 239.028,144.668 238.934 C 144.573 238.840,144.376 239.242,144.229 239.829 M217.600 239.486 C 217.600 239.769,217.960 240.000,218.400 240.000 C 218.840 240.000,219.200 239.769,219.200 239.486 C 219.200 239.203,218.840 238.971,218.400 238.971 C 217.960 238.971,217.600 239.203,217.600 239.486 M292.056 239.200 C 292.056 239.530,292.211 240.160,292.400 240.600 C 292.617 241.104,292.744 241.178,292.744 240.800 C 292.744 240.470,292.589 239.840,292.400 239.400 C 292.183 238.896,292.056 238.822,292.056 239.200 " stroke="none" fill="#848383" fill-rule="evenodd"></path><path id="path3" d="M44.552 189.498 C 44.305 189.664,43.537 190.925,42.846 192.300 C 41.309 195.355,41.503 195.368,39.825 192.100 C 39.063 190.615,38.430 189.532,38.420 189.692 C 38.377 190.333,40.999 195.200,41.386 195.199 C 41.614 195.198,42.430 193.983,43.200 192.499 C 45.599 187.873,46.400 188.334,46.400 194.339 C 46.400 197.214,46.236 199.215,45.990 199.337 C 45.764 199.449,45.810 199.494,46.090 199.437 C 47.071 199.238,46.791 189.424,45.800 189.298 C 45.360 189.241,44.798 189.331,44.552 189.498 M62.870 189.715 C 62.302 190.400,59.942 195.676,60.123 195.857 C 60.201 195.935,60.912 194.559,61.704 192.799 C 63.203 189.465,63.953 188.909,65.078 190.300 C 65.589 190.932,65.602 190.912,65.208 190.100 C 64.727 189.108,63.537 188.912,62.870 189.715 M81.374 189.724 C 80.861 191.060,81.398 199.390,82.000 199.434 C 82.346 199.459,82.388 199.406,82.100 199.309 C 81.219 199.014,81.408 189.709,82.300 189.476 C 82.956 189.304,82.955 189.290,82.287 189.246 C 81.896 189.221,81.484 189.436,81.374 189.724 M89.300 189.632 C 89.899 189.981,90.000 190.669,90.000 194.400 C 90.000 198.131,89.899 198.819,89.300 199.168 C 88.915 199.392,88.789 199.581,89.020 199.588 C 90.106 199.619,90.400 198.516,90.400 194.400 C 90.400 190.284,90.106 189.181,89.020 189.212 C 88.789 189.219,88.915 189.408,89.300 189.632 M104.500 189.632 C 105.089 189.975,105.200 190.642,105.200 193.820 C 105.200 195.899,105.335 197.600,105.500 197.601 C 105.953 197.602,105.601 190.283,105.120 189.704 C 104.890 189.427,104.499 189.205,104.251 189.212 C 104.003 189.219,104.115 189.408,104.500 189.632 M145.907 189.490 C 146.626 189.579,147.706 189.577,148.307 189.486 C 148.908 189.395,148.320 189.322,147.000 189.324 C 145.680 189.326,145.188 189.401,145.907 189.490 M165.374 189.724 C 164.861 191.060,165.398 199.390,166.000 199.434 C 166.346 199.459,166.388 199.406,166.100 199.309 C 165.219 199.014,165.408 189.709,166.300 189.476 C 166.956 189.304,166.955 189.290,166.287 189.246 C 165.896 189.221,165.484 189.436,165.374 189.724 M203.752 189.498 C 203.505 189.664,202.737 190.925,202.046 192.300 C 200.509 195.355,200.703 195.368,199.025 192.100 C 198.263 190.615,197.630 189.532,197.620 189.692 C 197.577 190.333,200.199 195.200,200.586 195.199 C 200.814 195.198,201.630 193.983,202.400 192.499 C 204.799 187.873,205.600 188.334,205.600 194.339 C 205.600 197.214,205.436 199.215,205.190 199.337 C 204.965 199.449,205.010 199.494,205.290 199.437 C 206.271 199.238,205.991 189.424,205.000 189.298 C 204.560 189.241,203.998 189.331,203.752 189.498 M222.070 189.715 C 221.502 190.400,219.142 195.676,219.323 195.857 C 219.401 195.935,220.112 194.559,220.904 192.799 C 222.403 189.465,223.153 188.909,224.278 190.300 C 224.789 190.932,224.802 190.912,224.408 190.100 C 223.927 189.108,222.737 188.912,222.070 189.715 M240.574 189.724 C 240.061 191.060,240.598 199.390,241.200 199.434 C 241.546 199.459,241.588 199.406,241.300 199.309 C 240.419 199.014,240.608 189.709,241.500 189.476 C 242.156 189.304,242.155 189.290,241.487 189.246 C 241.096 189.221,240.684 189.436,240.574 189.724 M248.500 189.632 C 249.707 190.335,249.532 198.692,248.300 199.188 C 247.748 199.409,247.640 199.559,248.020 199.575 C 249.318 199.628,249.600 198.703,249.600 194.400 C 249.600 190.284,249.306 189.181,248.220 189.212 C 247.989 189.219,248.115 189.408,248.500 189.632 M286.870 189.715 C 286.302 190.400,283.942 195.676,284.123 195.857 C 284.201 195.935,284.912 194.559,285.704 192.799 C 287.203 189.465,287.953 188.909,289.078 190.300 C 289.589 190.932,289.602 190.912,289.208 190.100 C 288.727 189.108,287.537 188.912,286.870 189.715 M305.374 189.724 C 304.861 191.060,305.398 199.390,306.000 199.434 C 306.346 199.459,306.388 199.406,306.100 199.309 C 305.219 199.014,305.408 189.709,306.300 189.476 C 306.956 189.304,306.955 189.290,306.287 189.246 C 305.896 189.221,305.484 189.436,305.374 189.724 M313.300 189.632 C 314.507 190.335,314.332 198.692,313.100 199.188 C 312.548 199.409,312.440 199.559,312.820 199.575 C 314.118 199.628,314.400 198.703,314.400 194.400 C 314.400 190.284,314.106 189.181,313.020 189.212 C 312.789 189.219,312.915 189.408,313.300 189.632 M334.108 189.637 C 334.498 189.864,334.697 190.263,334.550 190.525 C 334.380 190.827,334.485 190.812,334.838 190.483 C 335.412 189.949,334.801 189.203,333.800 189.218 C 333.580 189.222,333.719 189.410,334.108 189.637 M348.500 189.632 C 349.099 189.981,349.200 190.669,349.200 194.400 C 349.200 198.131,349.099 198.819,348.500 199.168 C 348.115 199.392,347.989 199.581,348.220 199.588 C 349.306 199.619,349.600 198.516,349.600 194.400 C 349.600 190.284,349.306 189.181,348.220 189.212 C 347.989 189.219,348.115 189.408,348.500 189.632 M36.154 194.400 C 36.154 197.150,36.218 198.275,36.296 196.900 C 36.374 195.525,36.374 193.275,36.296 191.900 C 36.218 190.525,36.154 191.650,36.154 194.400 M87.993 191.481 C 87.887 192.625,87.947 193.415,88.126 193.235 C 88.305 193.056,88.391 192.119,88.318 191.154 L 88.185 189.400 87.993 191.481 M103.354 194.400 C 103.354 197.150,103.418 198.275,103.496 196.900 C 103.574 195.525,103.574 193.275,103.496 191.900 C 103.418 190.525,103.354 191.650,103.354 194.400 M122.887 190.700 C 122.268 191.305,122.130 191.510,122.581 191.155 C 123.031 190.800,123.760 190.310,124.200 190.067 C 124.640 189.823,124.778 189.619,124.506 189.612 C 124.235 189.605,123.506 190.095,122.887 190.700 M128.600 190.067 C 129.040 190.310,129.769 190.800,130.219 191.155 C 130.670 191.510,130.532 191.305,129.913 190.700 C 129.294 190.095,128.565 189.605,128.294 189.612 C 128.022 189.619,128.160 189.823,128.600 190.067 M144.154 194.400 C 144.154 197.150,144.218 198.275,144.296 196.900 C 144.374 195.525,144.374 193.275,144.296 191.900 C 144.218 190.525,144.154 191.650,144.154 194.400 M150.495 190.226 C 151.534 190.790,151.766 191.268,152.134 193.600 C 152.239 194.270,152.309 194.099,152.346 193.082 C 152.402 191.513,151.049 189.581,149.918 189.616 C 149.633 189.625,149.893 189.899,150.495 190.226 M195.354 194.400 C 195.354 197.150,195.418 198.275,195.496 196.900 C 195.574 195.525,195.574 193.275,195.496 191.900 C 195.418 190.525,195.354 191.650,195.354 194.400 M243.286 190.900 C 247.274 196.568,247.387 196.608,247.431 192.368 L 247.463 189.400 247.313 192.100 C 247.129 195.424,247.015 195.428,244.645 192.200 C 242.713 189.568,241.600 188.504,243.286 190.900 M263.905 190.226 C 260.820 191.900,260.905 196.999,264.044 198.623 C 264.721 198.973,265.361 199.172,265.467 199.066 C 265.573 198.960,265.295 198.757,264.848 198.615 C 261.279 197.482,261.096 192.472,264.547 190.367 C 266.016 189.471,265.504 189.359,263.905 190.226 M269.300 190.065 C 271.044 190.702,270.744 191.743,268.900 191.454 C 267.831 191.286,267.630 191.323,268.200 191.581 C 269.455 192.150,270.403 192.059,270.678 191.342 C 270.958 190.611,269.840 189.580,268.824 189.632 C 268.481 189.649,268.695 189.844,269.300 190.065 M308.086 190.900 C 312.074 196.568,312.187 196.608,312.231 192.368 L 312.263 189.400 312.113 192.100 C 311.929 195.424,311.815 195.428,309.445 192.200 C 307.513 189.568,306.400 188.504,308.086 190.900 M328.015 189.800 C 328.017 190.020,328.386 190.650,328.836 191.200 C 329.379 191.864,329.515 191.931,329.240 191.400 C 328.566 190.095,328.012 189.372,328.015 189.800 M347.354 194.400 C 347.354 197.150,347.418 198.275,347.496 196.900 C 347.574 195.525,347.574 193.275,347.496 191.900 C 347.418 190.525,347.354 191.650,347.354 194.400 M83.314 191.800 C 83.317 192.900,83.395 193.303,83.487 192.695 C 83.579 192.086,83.577 191.186,83.482 190.695 C 83.387 190.203,83.311 190.700,83.314 191.800 M167.351 194.400 C 167.351 196.930,167.416 197.965,167.496 196.700 C 167.575 195.435,167.575 193.365,167.496 192.100 C 167.416 190.835,167.351 191.870,167.351 194.400 M327.289 192.172 C 327.986 193.385,328.613 194.320,328.684 194.250 C 328.864 194.070,326.813 190.455,326.379 190.187 C 326.183 190.066,326.592 190.959,327.289 192.172 M331.800 191.600 C 331.459 192.260,331.269 192.800,331.379 192.800 C 331.489 192.800,331.859 192.260,332.200 191.600 C 332.541 190.940,332.731 190.400,332.621 190.400 C 332.511 190.400,332.141 190.940,331.800 191.600 M65.600 191.284 C 65.600 191.716,66.815 194.400,67.011 194.400 C 67.121 194.400,66.933 193.734,66.593 192.921 C 65.993 191.486,65.600 190.838,65.600 191.284 M124.070 192.126 C 123.591 192.635,123.200 193.215,123.200 193.415 C 123.200 193.615,123.489 193.365,123.843 192.860 C 124.196 192.356,124.871 191.787,125.343 191.597 C 125.915 191.366,125.991 191.242,125.570 191.225 C 125.223 191.211,124.548 191.617,124.070 192.126 M127.457 191.597 C 127.929 191.787,128.604 192.356,128.957 192.860 C 129.311 193.365,129.600 193.565,129.600 193.305 C 129.600 192.627,127.964 191.195,127.225 191.225 C 126.815 191.242,126.895 191.370,127.457 191.597 M146.000 193.200 L 146.000 195.200 147.426 195.200 C 148.211 195.200,149.201 195.014,149.626 194.786 C 150.937 194.085,150.442 191.171,149.020 191.212 C 148.789 191.219,148.915 191.408,149.300 191.632 C 150.188 192.149,150.236 194.224,149.367 194.557 C 147.235 195.376,146.313 194.881,146.463 193.000 C 146.541 192.010,146.469 191.200,146.303 191.200 C 146.136 191.200,146.000 192.100,146.000 193.200 M224.800 191.284 C 224.800 191.716,226.015 194.400,226.211 194.400 C 226.321 194.400,226.133 193.734,225.793 192.921 C 225.193 191.486,224.800 190.838,224.800 191.284 M264.429 192.254 C 262.993 194.080,263.985 197.611,265.929 197.594 C 266.390 197.590,266.290 197.431,265.607 197.086 C 265.060 196.809,264.441 196.092,264.229 195.491 C 263.720 194.042,264.334 192.359,265.607 191.714 C 266.290 191.369,266.390 191.210,265.929 191.206 C 265.560 191.203,264.885 191.674,264.429 192.254 M289.600 191.284 C 289.600 191.716,290.815 194.400,291.011 194.400 C 291.121 194.400,290.933 193.734,290.593 192.921 C 289.993 191.486,289.600 190.838,289.600 191.284 M333.028 193.061 C 332.456 194.084,332.052 194.985,332.129 195.063 C 332.207 195.140,332.761 194.303,333.360 193.202 C 333.960 192.101,334.364 191.200,334.259 191.200 C 334.154 191.200,333.600 192.037,333.028 193.061 M63.025 193.152 C 62.681 193.816,62.405 194.594,62.410 194.880 C 62.416 195.166,62.743 194.682,63.137 193.805 C 63.803 192.322,63.886 192.266,64.315 193.005 C 64.568 193.442,64.781 193.597,64.788 193.349 C 64.822 192.090,63.642 191.958,63.025 193.152 M222.225 193.152 C 221.881 193.816,221.605 194.594,221.610 194.880 C 221.616 195.166,221.943 194.682,222.337 193.805 C 223.003 192.322,223.086 192.266,223.515 193.005 C 223.768 193.442,223.981 193.597,223.988 193.349 C 224.022 192.090,222.842 191.958,222.225 193.152 M287.025 193.152 C 286.681 193.816,286.405 194.594,286.410 194.880 C 286.416 195.166,286.743 194.682,287.137 193.805 C 287.803 192.322,287.886 192.266,288.315 193.005 C 288.568 193.442,288.781 193.597,288.788 193.349 C 288.822 192.090,287.642 191.958,287.025 193.152 M121.093 193.450 C 120.669 195.667,122.784 199.204,124.531 199.199 C 124.789 199.198,124.426 198.847,123.726 198.420 C 122.081 197.417,121.470 196.233,121.502 194.110 C 121.531 192.160,121.384 191.923,121.093 193.450 M131.354 194.400 C 131.354 196.185,131.413 196.362,131.710 195.469 C 131.919 194.844,131.919 193.956,131.710 193.331 C 131.413 192.438,131.354 192.615,131.354 194.400 M37.600 196.167 C 37.600 197.798,37.416 199.225,37.190 199.337 C 36.965 199.449,37.010 199.494,37.290 199.438 C 37.621 199.372,37.842 198.470,37.919 196.868 C 38.062 193.902,38.295 193.824,39.600 196.301 C 41.064 199.081,41.897 199.002,43.490 195.932 C 44.199 194.564,44.706 193.372,44.616 193.282 C 44.526 193.193,43.898 194.217,43.220 195.560 C 41.682 198.607,41.121 198.613,39.600 195.600 C 38.007 192.445,37.600 192.561,37.600 196.167 M196.800 196.167 C 196.800 197.798,196.615 199.225,196.390 199.337 C 196.165 199.449,196.210 199.494,196.490 199.438 C 196.821 199.372,197.042 198.470,197.119 196.868 C 197.262 193.902,197.495 193.824,198.800 196.301 C 200.264 199.081,201.097 199.002,202.690 195.932 C 203.399 194.564,203.906 193.372,203.816 193.282 C 203.726 193.193,203.098 194.217,202.420 195.560 C 200.882 198.607,200.321 198.613,198.800 195.600 C 197.207 192.445,196.800 192.561,196.800 196.167 M242.478 196.100 L 242.557 199.000 242.698 196.255 L 242.839 193.511 245.019 196.426 C 246.219 198.029,247.200 199.216,247.200 199.063 C 247.200 198.617,243.052 193.200,242.710 193.200 C 242.540 193.200,242.435 194.505,242.478 196.100 M307.278 196.100 L 307.357 199.000 307.498 196.255 L 307.639 193.511 309.819 196.426 C 311.019 198.029,312.000 199.216,312.000 199.063 C 312.000 198.617,307.852 193.200,307.510 193.200 C 307.340 193.200,307.235 194.505,307.278 196.100 M269.067 194.667 C 268.920 194.813,268.800 195.430,268.800 196.037 C 268.800 196.676,268.544 197.221,268.192 197.330 C 267.739 197.471,267.758 197.503,268.267 197.459 C 268.683 197.422,269.086 196.874,269.298 196.056 C 269.648 194.703,269.560 194.173,269.067 194.667 M270.703 195.405 C 271.015 197.038,270.483 198.303,269.301 198.735 C 268.608 198.988,268.459 199.149,268.900 199.168 C 270.515 199.241,272.158 195.439,270.858 194.636 C 270.670 194.519,270.600 194.865,270.703 195.405 M67.350 195.200 C 67.701 196.499,68.909 199.224,69.065 199.068 C 69.156 198.978,68.770 197.935,68.209 196.752 C 67.647 195.568,67.261 194.870,67.350 195.200 M151.062 195.531 C 150.163 196.525,150.223 196.899,151.463 198.030 L 152.527 199.000 151.594 197.708 C 150.688 196.452,150.682 196.393,151.393 195.608 C 151.795 195.164,152.034 194.800,151.924 194.800 C 151.814 194.800,151.426 195.129,151.062 195.531 M226.550 195.200 C 226.901 196.499,228.109 199.224,228.265 199.068 C 228.356 198.978,227.970 197.935,227.409 196.752 C 226.847 195.568,226.461 194.870,226.550 195.200 M291.350 195.200 C 291.701 196.499,292.909 199.224,293.065 199.068 C 293.156 198.978,292.770 197.935,292.209 196.752 C 291.647 195.568,291.261 194.870,291.350 195.200 M83.270 197.081 L 83.340 199.000 83.493 197.300 L 83.646 195.600 85.801 195.600 L 87.956 195.600 88.111 197.300 L 88.265 199.000 88.233 197.200 L 88.200 195.400 85.700 195.281 L 83.200 195.162 83.270 197.081 M123.200 195.476 C 123.200 196.143,125.119 197.695,125.671 197.474 C 126.034 197.330,125.989 197.253,125.529 197.232 C 125.160 197.214,124.485 196.726,124.029 196.146 C 123.573 195.566,123.200 195.265,123.200 195.476 M128.881 196.018 C 128.600 196.469,127.972 196.997,127.485 197.193 C 126.924 197.419,126.828 197.559,127.225 197.575 C 127.915 197.603,129.600 196.191,129.600 195.584 C 129.600 195.017,129.450 195.108,128.881 196.018 M331.449 196.215 C 331.312 196.573,331.200 197.376,331.200 197.999 C 331.200 198.623,331.016 199.225,330.790 199.337 C 330.565 199.449,330.610 199.494,330.890 199.437 C 331.171 199.381,331.512 198.540,331.649 197.567 C 331.918 195.662,331.847 195.180,331.449 196.215 M61.311 197.300 C 61.098 197.575,60.812 198.115,60.675 198.500 C 60.537 198.885,60.163 199.200,59.842 199.200 C 59.521 199.200,59.166 198.885,59.052 198.500 C 58.892 197.956,58.864 197.978,58.928 198.600 C 59.047 199.749,60.469 199.617,61.072 198.400 C 61.500 197.538,61.915 197.368,64.084 197.169 L 66.600 196.938 64.149 196.869 C 62.587 196.825,61.558 196.981,61.311 197.300 M130.580 197.232 C 130.433 197.470,129.747 198.010,129.056 198.431 C 128.365 198.852,128.022 199.198,128.294 199.199 C 128.806 199.200,131.613 196.832,131.124 196.812 C 130.972 196.805,130.727 196.995,130.580 197.232 M146.000 197.780 C 146.000 198.319,145.685 198.944,145.300 199.168 C 144.915 199.392,144.803 199.581,145.051 199.588 C 145.299 199.595,145.678 199.375,145.893 199.100 C 146.464 198.370,146.785 196.800,146.363 196.800 C 146.163 196.800,146.000 197.241,146.000 197.780 M149.298 198.000 C 149.849 198.770,150.638 199.442,151.050 199.493 C 151.566 199.557,151.612 199.512,151.200 199.351 C 150.870 199.221,150.082 198.549,149.448 197.858 L 148.297 196.600 149.298 198.000 M220.511 197.300 C 220.298 197.575,220.012 198.115,219.875 198.500 C 219.737 198.885,219.363 199.200,219.042 199.200 C 218.721 199.200,218.366 198.885,218.252 198.500 C 218.092 197.956,218.064 197.978,218.128 198.600 C 218.247 199.749,219.669 199.617,220.272 198.400 C 220.700 197.538,221.115 197.368,223.284 197.169 L 225.800 196.938 223.349 196.869 C 221.787 196.825,220.758 196.981,220.511 197.300 M285.311 197.300 C 285.098 197.575,284.812 198.115,284.675 198.500 C 284.537 198.885,284.163 199.200,283.842 199.200 C 283.521 199.200,283.166 198.885,283.052 198.500 C 282.892 197.956,282.864 197.978,282.928 198.600 C 283.047 199.749,284.469 199.617,285.072 198.400 C 285.500 197.538,285.915 197.368,288.084 197.169 L 290.600 196.938 288.149 196.869 C 286.587 196.825,285.558 196.981,285.311 197.300 M105.100 199.489 C 105.815 199.578,106.985 199.578,107.700 199.489 C 108.415 199.401,107.830 199.328,106.400 199.328 C 104.970 199.328,104.385 199.401,105.100 199.489 M125.700 199.476 C 126.085 199.576,126.715 199.576,127.100 199.476 C 127.485 199.375,127.170 199.293,126.400 199.293 C 125.630 199.293,125.315 199.375,125.700 199.476 M147.857 220.700 C 147.748 221.085,147.563 222.030,147.444 222.800 L 147.229 224.200 147.648 222.800 C 147.879 222.030,148.234 221.085,148.437 220.700 C 148.666 220.267,148.663 220.000,148.430 220.000 C 148.223 220.000,147.965 220.315,147.857 220.700 M157.502 221.000 C 157.607 221.550,157.762 222.000,157.847 222.000 C 157.931 222.000,158.000 221.550,158.000 221.000 C 158.000 220.450,157.845 220.000,157.655 220.000 C 157.466 220.000,157.397 220.450,157.502 221.000 M179.200 220.050 C 179.200 220.398,180.437 222.800,180.617 222.800 C 180.704 222.800,180.661 222.485,180.521 222.100 C 180.233 221.306,179.200 219.703,179.200 220.050 M181.874 221.779 C 181.314 222.781,180.979 223.599,181.128 223.597 C 181.465 223.593,183.264 220.330,183.048 220.115 C 182.962 220.029,182.434 220.778,181.874 221.779 M204.256 220.310 C 204.150 220.480,204.212 221.245,204.392 222.010 L 204.719 223.400 204.694 221.700 C 204.668 219.975,204.599 219.754,204.256 220.310 M222.257 220.700 C 222.148 221.085,221.963 222.030,221.844 222.800 L 221.629 224.200 222.048 222.800 C 222.279 222.030,222.634 221.085,222.837 220.700 C 223.066 220.267,223.063 220.000,222.830 220.000 C 222.623 220.000,222.365 220.315,222.257 220.700 M231.902 221.000 C 232.007 221.550,232.162 222.000,232.247 222.000 C 232.331 222.000,232.400 221.550,232.400 221.000 C 232.400 220.450,232.245 220.000,232.055 220.000 C 231.866 220.000,231.797 220.450,231.902 221.000 M253.600 220.050 C 253.600 220.398,254.837 222.800,255.017 222.800 C 255.104 222.800,255.061 222.485,254.921 222.100 C 254.633 221.306,253.600 219.703,253.600 220.050 M256.274 221.779 C 255.714 222.781,255.379 223.599,255.528 223.597 C 255.865 223.593,257.664 220.330,257.448 220.115 C 257.362 220.029,256.834 220.778,256.274 221.779 M278.656 220.310 C 278.550 220.480,278.612 221.245,278.792 222.010 L 279.119 223.400 279.094 221.700 C 279.068 219.975,278.999 219.754,278.656 220.310 M169.611 220.910 C 169.594 221.408,172.435 226.899,172.616 226.717 C 172.706 226.627,172.070 225.214,171.201 223.576 C 170.332 221.939,169.616 220.739,169.611 220.910 M191.500 222.900 C 190.901 224.024,190.486 225.019,190.578 225.112 C 190.671 225.204,191.220 224.344,191.800 223.200 C 193.172 220.493,192.918 220.240,191.500 222.900 M244.011 220.910 C 243.994 221.408,246.835 226.899,247.016 226.717 C 247.106 226.627,246.470 225.214,245.601 223.576 C 244.732 221.939,244.016 220.739,244.011 220.910 M265.900 222.900 C 265.301 224.024,264.886 225.019,264.978 225.112 C 265.071 225.204,265.620 224.344,266.200 223.200 C 267.572 220.493,267.318 220.240,265.900 222.900 M214.480 222.200 C 214.480 222.640,214.624 223.450,214.800 224.000 C 215.054 224.792,215.120 224.833,215.120 224.200 C 215.120 223.760,214.976 222.950,214.800 222.400 C 214.546 221.608,214.480 221.567,214.480 222.200 M288.880 222.200 C 288.880 222.640,289.024 223.450,289.200 224.000 C 289.454 224.792,289.520 224.833,289.520 224.200 C 289.520 223.760,289.376 222.950,289.200 222.400 C 288.946 221.608,288.880 221.567,288.880 222.200 M157.000 224.000 C 156.846 224.910,156.804 225.738,156.907 225.840 C 157.010 225.943,157.213 225.277,157.360 224.360 C 157.507 223.443,157.548 222.615,157.453 222.520 C 157.358 222.424,157.154 223.090,157.000 224.000 M231.400 224.000 C 231.246 224.910,231.204 225.738,231.307 225.840 C 231.410 225.943,231.613 225.277,231.760 224.360 C 231.907 223.443,231.948 222.615,231.853 222.520 C 231.758 222.424,231.554 223.090,231.400 224.000 M205.062 225.000 C 205.196 225.880,205.372 226.675,205.453 226.767 C 205.756 227.110,205.529 224.968,205.181 224.200 C 204.929 223.642,204.893 223.885,205.062 225.000 M279.462 225.000 C 279.596 225.880,279.772 226.675,279.853 226.767 C 280.156 227.110,279.929 224.968,279.581 224.200 C 279.329 223.642,279.293 223.885,279.462 225.000 M146.622 226.222 C 146.472 227.025,146.428 227.762,146.526 227.860 C 146.624 227.957,146.827 227.381,146.978 226.578 C 147.128 225.775,147.172 225.038,147.074 224.940 C 146.976 224.843,146.773 225.419,146.622 226.222 M221.022 226.222 C 220.872 227.025,220.828 227.762,220.926 227.860 C 221.024 227.957,221.227 227.381,221.378 226.578 C 221.528 225.775,221.572 225.038,221.474 224.940 C 221.376 224.843,221.173 225.419,221.022 226.222 M215.228 226.033 C 215.244 226.565,215.419 227.360,215.619 227.800 C 215.871 228.358,215.907 228.115,215.738 227.000 C 215.455 225.143,215.187 224.636,215.228 226.033 M289.628 226.033 C 289.644 226.565,289.819 227.360,290.019 227.800 C 290.271 228.358,290.307 228.115,290.138 227.000 C 289.855 225.143,289.587 224.636,289.628 226.033 M156.200 228.000 C 156.046 228.910,156.004 229.738,156.107 229.840 C 156.210 229.943,156.413 229.277,156.560 228.360 C 156.707 227.443,156.748 226.615,156.653 226.520 C 156.558 226.424,156.354 227.090,156.200 228.000 M230.600 228.000 C 230.446 228.910,230.404 229.738,230.507 229.840 C 230.610 229.943,230.813 229.277,230.960 228.360 C 231.107 227.443,231.148 226.615,231.053 226.520 C 230.958 226.424,230.754 227.090,230.600 228.000 M205.680 227.800 C 205.680 228.240,205.824 229.050,206.000 229.600 C 206.254 230.392,206.320 230.433,206.320 229.800 C 206.320 229.360,206.176 228.550,206.000 228.000 C 205.746 227.208,205.680 227.167,205.680 227.800 M280.080 227.800 C 280.080 228.240,280.224 229.050,280.400 229.600 C 280.654 230.392,280.720 230.433,280.720 229.800 C 280.720 229.360,280.576 228.550,280.400 228.000 C 280.146 227.208,280.080 227.167,280.080 227.800 M145.840 230.040 C 145.693 230.957,145.652 231.785,145.747 231.880 C 145.842 231.976,146.046 231.310,146.200 230.400 C 146.354 229.490,146.396 228.662,146.293 228.560 C 146.190 228.457,145.987 229.123,145.840 230.040 M220.240 230.040 C 220.093 230.957,220.052 231.785,220.147 231.880 C 220.242 231.976,220.446 231.310,220.600 230.400 C 220.754 229.490,220.796 228.662,220.693 228.560 C 220.590 228.457,220.387 229.123,220.240 230.040 M186.238 233.086 C 185.029 235.444,184.100 237.433,184.174 237.508 C 184.249 237.582,185.327 235.653,186.571 233.221 C 187.815 230.790,188.744 228.800,188.635 228.800 C 188.526 228.800,187.448 230.729,186.238 233.086 M216.028 229.633 C 216.044 230.165,216.219 230.960,216.419 231.400 C 216.671 231.958,216.707 231.715,216.538 230.600 C 216.255 228.743,215.987 228.236,216.028 229.633 M260.638 233.086 C 259.429 235.444,258.500 237.433,258.574 237.508 C 258.649 237.582,259.727 235.653,260.971 233.221 C 262.215 230.790,263.144 228.800,263.035 228.800 C 262.926 228.800,261.848 230.729,260.638 233.086 M290.428 229.633 C 290.444 230.165,290.619 230.960,290.819 231.400 C 291.071 231.958,291.107 231.715,290.938 230.600 C 290.655 228.743,290.387 228.236,290.428 229.633 M155.400 232.000 C 155.246 232.910,155.204 233.738,155.307 233.840 C 155.410 233.943,155.613 233.277,155.760 232.360 C 155.907 231.443,155.948 230.615,155.853 230.520 C 155.758 230.424,155.554 231.090,155.400 232.000 M229.800 232.000 C 229.646 232.910,229.604 233.738,229.707 233.840 C 229.810 233.943,230.013 233.277,230.160 232.360 C 230.307 231.443,230.348 230.615,230.253 230.520 C 230.158 230.424,229.954 231.090,229.800 232.000 M206.468 231.600 C 206.488 232.639,207.118 234.346,207.132 233.400 C 207.138 232.960,206.989 232.240,206.800 231.800 C 206.589 231.310,206.461 231.232,206.468 231.600 M280.868 231.600 C 280.888 232.639,281.518 234.346,281.532 233.400 C 281.538 232.960,281.389 232.240,281.200 231.800 C 280.989 231.310,280.861 231.232,280.868 231.600 M177.396 236.321 C 178.658 238.808,179.760 240.774,179.844 240.689 C 180.026 240.507,176.069 232.782,175.496 232.200 C 175.279 231.980,176.134 233.835,177.396 236.321 M251.796 236.321 C 253.058 238.808,254.160 240.774,254.244 240.689 C 254.426 240.507,250.469 232.782,249.896 232.200 C 249.679 231.980,250.534 233.835,251.796 236.321 M145.249 233.000 C 145.216 233.440,145.096 234.250,144.983 234.800 L 144.777 235.800 145.206 234.819 C 145.442 234.279,145.561 233.469,145.472 233.019 C 145.313 232.221,145.307 232.221,145.249 233.000 M219.649 233.000 C 219.616 233.440,219.496 234.250,219.383 234.800 L 219.177 235.800 219.606 234.819 C 219.842 234.279,219.961 233.469,219.872 233.019 C 219.713 232.221,219.707 232.221,219.649 233.000 M216.880 233.400 C 216.880 233.840,217.024 234.650,217.200 235.200 C 217.454 235.992,217.520 236.033,217.520 235.400 C 217.520 234.960,217.376 234.150,217.200 233.600 C 216.946 232.808,216.880 232.767,216.880 233.400 M291.280 233.400 C 291.280 233.840,291.424 234.650,291.600 235.200 C 291.854 235.992,291.920 236.033,291.920 235.400 C 291.920 234.960,291.776 234.150,291.600 233.600 C 291.346 232.808,291.280 232.767,291.280 233.400 M154.656 235.684 C 154.521 236.188,154.427 236.960,154.446 237.400 C 154.465 237.840,154.645 237.498,154.846 236.640 C 155.236 234.978,155.070 234.140,154.656 235.684 M207.462 236.200 C 207.596 237.080,207.772 237.875,207.853 237.967 C 208.156 238.310,207.929 236.168,207.581 235.400 C 207.329 234.842,207.293 235.085,207.462 236.200 M229.056 235.684 C 228.921 236.188,228.827 236.960,228.846 237.400 C 228.865 237.840,229.045 237.498,229.246 236.640 C 229.636 234.978,229.470 234.140,229.056 235.684 M281.862 236.200 C 281.996 237.080,282.172 237.875,282.253 237.967 C 282.556 238.310,282.329 236.168,281.981 235.400 C 281.729 234.842,281.693 235.085,281.862 236.200 M144.222 237.822 C 144.072 238.625,144.028 239.362,144.126 239.460 C 144.224 239.557,144.427 238.981,144.578 238.178 C 144.728 237.375,144.772 236.638,144.674 236.540 C 144.576 236.443,144.373 237.019,144.222 237.822 M217.654 237.276 C 217.625 237.868,217.800 238.476,218.045 238.628 C 218.597 238.969,219.204 238.068,219.139 237.000 C 219.098 236.310,219.067 236.324,218.918 237.100 C 218.822 237.595,218.589 238.000,218.400 238.000 C 218.211 238.000,217.978 237.595,217.882 237.100 C 217.730 236.312,217.702 236.334,217.654 237.276 M292.068 237.200 C 292.062 237.750,292.211 238.560,292.400 239.000 L 292.744 239.800 292.732 239.000 C 292.726 238.560,292.576 237.750,292.400 237.200 L 292.080 236.200 292.068 237.200 M208.080 239.000 C 208.080 239.440,208.224 240.250,208.400 240.800 C 208.654 241.592,208.720 241.633,208.720 241.000 C 208.720 240.560,208.576 239.750,208.400 239.200 C 208.146 238.408,208.080 238.367,208.080 239.000 M282.480 239.000 C 282.480 239.440,282.624 240.250,282.800 240.800 C 283.054 241.592,283.120 241.633,283.120 241.000 C 283.120 240.560,282.976 239.750,282.800 239.200 C 282.546 238.408,282.480 238.367,282.480 239.000 M153.712 240.500 L 153.376 242.200 148.714 242.312 L 144.053 242.425 143.874 241.112 L 143.696 239.800 143.748 241.200 L 143.800 242.600 148.441 242.712 C 151.846 242.794,153.190 242.688,153.489 242.312 C 153.928 241.759,154.562 238.800,154.242 238.800 C 154.135 238.800,153.896 239.565,153.712 240.500 M228.111 240.500 L 227.775 242.200 218.588 242.411 L 209.400 242.623 218.451 242.711 C 225.301 242.778,227.599 242.678,227.899 242.300 C 228.331 241.756,228.958 238.800,228.642 238.800 C 228.535 238.800,228.296 239.565,228.111 240.500 M182.181 240.837 C 181.829 241.518,181.612 242.145,181.699 242.232 C 181.786 242.319,182.156 241.762,182.522 240.995 C 183.344 239.270,183.059 239.138,182.181 240.837 M256.581 240.837 C 256.229 241.518,256.012 242.145,256.099 242.232 C 256.186 242.319,256.556 241.762,256.922 240.995 C 257.744 239.270,257.459 239.138,256.581 240.837 M292.854 241.087 L 292.800 242.374 288.300 242.501 L 283.800 242.629 288.313 242.714 C 293.155 242.806,293.458 242.680,293.086 240.729 C 292.950 240.014,292.896 240.097,292.854 241.087 " stroke="none" fill="#a6a3a4" fill-rule="evenodd"></path><path id="path4" d="M89.751 194.400 C 89.751 196.930,89.816 197.965,89.896 196.700 C 89.975 195.435,89.975 193.365,89.896 192.100 C 89.816 190.835,89.751 191.870,89.751 194.400 M104.944 193.600 C 104.944 195.690,105.012 196.545,105.094 195.500 C 105.176 194.455,105.176 192.745,105.094 191.700 C 105.012 190.655,104.944 191.510,104.944 193.600 M248.951 194.400 C 248.951 196.930,249.016 197.965,249.096 196.700 C 249.175 195.435,249.175 193.365,249.096 192.100 C 249.016 190.835,248.951 191.870,248.951 194.400 M313.751 194.400 C 313.751 196.930,313.816 197.965,313.896 196.700 C 313.975 195.435,313.975 193.365,313.896 192.100 C 313.816 190.835,313.751 191.870,313.751 194.400 M348.951 194.400 C 348.951 196.930,349.016 197.965,349.096 196.700 C 349.175 195.435,349.175 193.365,349.096 192.100 C 349.016 190.835,348.951 191.870,348.951 194.400 M145.709 193.200 C 145.709 194.190,145.787 194.595,145.882 194.100 C 145.978 193.605,145.978 192.795,145.882 192.300 C 145.787 191.805,145.709 192.210,145.709 193.200 M44.931 196.200 C 44.933 197.740,45.005 198.321,45.092 197.491 C 45.179 196.661,45.177 195.401,45.089 194.691 C 45.000 193.981,44.929 194.660,44.931 196.200 M84.500 193.887 C 85.105 193.978,86.095 193.978,86.700 193.887 C 87.305 193.795,86.810 193.720,85.600 193.720 C 84.390 193.720,83.895 193.795,84.500 193.887 M204.131 196.200 C 204.133 197.740,204.205 198.321,204.292 197.491 C 204.379 196.661,204.377 195.401,204.289 194.691 C 204.200 193.981,204.129 194.660,204.131 196.200 M64.000 195.200 L 62.600 195.495 63.876 195.547 C 64.578 195.576,65.264 195.420,65.400 195.200 C 65.536 194.980,65.592 194.824,65.524 194.853 C 65.456 194.882,64.770 195.038,64.000 195.200 M223.200 195.200 L 221.800 195.495 223.076 195.547 C 223.778 195.576,224.464 195.420,224.600 195.200 C 224.736 194.980,224.792 194.824,224.724 194.853 C 224.656 194.882,223.970 195.038,223.200 195.200 M270.501 196.200 C 270.505 197.080,270.587 197.393,270.683 196.895 C 270.779 196.398,270.775 195.678,270.675 195.295 C 270.575 194.913,270.496 195.320,270.501 196.200 M288.000 195.200 L 286.600 195.495 287.876 195.547 C 288.578 195.576,289.264 195.420,289.400 195.200 C 289.536 194.980,289.592 194.824,289.524 194.853 C 289.456 194.882,288.770 195.038,288.000 195.200 M329.701 197.400 C 329.705 198.280,329.787 198.593,329.883 198.095 C 329.979 197.598,329.975 196.878,329.875 196.495 C 329.775 196.113,329.696 196.520,329.701 197.400 M106.000 197.758 C 106.000 197.845,106.705 197.983,107.566 198.065 C 108.428 198.148,109.047 198.076,108.943 197.907 C 108.753 197.600,106.000 197.460,106.000 197.758 " stroke="none" fill="#8c8c8c" fill-rule="evenodd"></path></g></svg>