<?xml version="1.0" standalone="no"?>
<!DOCTYPE svg PUBLIC "-//W3C//DTD SVG 20010904//EN"
 "http://www.w3.org/TR/2001/REC-SVG-20010904/DTD/svg10.dtd">
<svg version="1.0" xmlns="http://www.w3.org/2000/svg"
 width="500.000000pt" height="500.000000pt" viewBox="0 0 500.000000 500.000000"
 preserveAspectRatio="xMidYMid meet">

<g transform="translate(0.000000,500.000000) scale(0.100000,-0.100000)"
fill="#000000" stroke="none">
<path d="M462 2568 c1 -61 1 -61 7 -18 l6 45 21 -39 21 -40 21 40 21 39 1 -42
c0 -24 5 -43 10 -43 6 0 10 27 10 60 0 33 -4 60 -10 60 -5 0 -19 -19 -31 -42
l-22 -43 -20 43 c-12 23 -25 42 -29 42 -4 0 -7 -28 -6 -62z"/>
<path d="M765 2574 c-29 -64 -28 -64 -15 -64 6 0 10 7 10 15 0 22 66 20 79 -2
5 -10 12 -15 15 -13 7 8 -45 120 -56 120 -4 0 -19 -25 -33 -56z m49 10 c9 -23
8 -24 -14 -24 -11 0 -20 2 -20 4 0 12 13 36 20 36 4 0 11 -7 14 -16z"/>
<path d="M1020 2570 c0 -33 4 -60 10 -60 6 0 10 11 10 25 0 21 5 25 30 25 25
0 30 -4 30 -25 0 -14 5 -25 10 -25 6 0 10 27 10 60 0 33 -4 60 -10 60 -5 0
-10 -11 -10 -25 0 -21 -5 -25 -30 -25 -25 0 -30 4 -30 25 0 14 -4 25 -10 25
-6 0 -10 -27 -10 -60z"/>
<path d="M1302 2573 l-2 -63 30 0 c17 0 30 5 30 10 0 6 -11 10 -24 10 -23 0
-25 4 -29 53 l-3 52 -2 -62z"/>
<path d="M1542 2614 c-33 -23 -27 -73 11 -94 24 -13 30 -13 55 0 37 21 43 71
10 94 -12 9 -29 16 -38 16 -9 0 -26 -7 -38 -16z m73 -44 c0 -33 -2 -35 -35
-35 -29 0 -36 4 -38 23 -6 40 5 54 40 50 30 -3 33 -6 33 -38z"/>
<path d="M1811 2568 c1 -35 3 -55 6 -45 5 21 36 22 53 2 7 -8 17 -15 22 -15 7
0 6 5 -1 13 -8 10 -7 22 2 46 11 29 10 34 -7 47 -11 8 -32 14 -48 14 -28 0
-28 0 -27 -62z m67 20 c-2 -17 -11 -24 -30 -26 -24 -3 -28 0 -28 22 0 22 4 26
31 26 26 0 30 -3 27 -22z"/>
<path d="M2070 2570 c0 -33 4 -60 10 -60 6 0 10 27 10 60 0 33 -4 60 -10 60
-6 0 -10 -27 -10 -60z"/>
<path d="M2452 2568 c1 -61 1 -61 7 -18 l6 45 21 -39 21 -40 21 40 21 39 1
-42 c0 -24 5 -43 10 -43 6 0 10 27 10 60 0 33 -4 60 -10 60 -5 0 -19 -19 -31
-42 l-22 -43 -20 43 c-12 23 -25 42 -29 42 -4 0 -7 -28 -6 -62z"/>
<path d="M2755 2574 c-29 -64 -28 -64 -15 -64 6 0 10 7 10 15 0 22 66 20 79
-2 5 -10 12 -15 15 -13 7 8 -45 120 -56 120 -4 0 -19 -25 -33 -56z m49 10 c9
-23 8 -24 -14 -24 -11 0 -20 2 -20 4 0 12 13 36 20 36 4 0 11 -7 14 -16z"/>
<path d="M3010 2570 c0 -68 17 -82 22 -18 l3 42 29 -42 c16 -23 33 -42 37 -42
5 0 8 28 7 63 -1 49 -2 53 -5 20 -2 -24 -7 -43 -11 -43 -4 0 -20 18 -35 40
-16 22 -33 40 -38 40 -5 0 -9 -27 -9 -60z"/>
<path d="M3302 2614 c-50 -35 -8 -115 53 -100 20 5 25 12 24 34 -2 23 -2 24
-6 5 -6 -31 -57 -32 -73 -3 -18 34 5 63 46 58 35 -4 46 5 18 16 -24 9 -38 7
-62 -10z"/>
<path d="M3565 2574 c-29 -64 -28 -64 -15 -64 6 0 10 7 10 15 0 22 66 20 79
-2 5 -10 12 -15 15 -13 7 8 -45 120 -56 120 -4 0 -19 -25 -33 -56z m49 10 c9
-23 8 -24 -14 -24 -11 0 -20 2 -20 4 0 12 13 36 20 36 4 0 11 -7 14 -16z"/>
<path d="M3820 2570 c0 -68 17 -82 22 -18 l3 42 29 -42 c16 -23 33 -42 37 -42
5 0 8 28 7 63 -1 49 -2 53 -5 20 -2 -24 -7 -43 -11 -43 -4 0 -20 18 -35 40
-16 22 -33 40 -38 40 -5 0 -9 -27 -9 -60z"/>
<path d="M4099 2594 c12 -19 21 -46 21 -60 0 -13 5 -24 10 -24 6 0 10 9 10 19
0 11 10 36 21 56 12 20 19 38 16 42 -3 3 -15 -9 -26 -27 l-19 -32 -16 31 c-9
17 -21 31 -27 31 -6 0 -2 -16 10 -36z"/>
<path d="M4353 2570 c0 -36 2 -50 4 -32 2 17 2 47 0 65 -2 17 -4 3 -4 -33z"/>
<path d="M1855 2238 c-6 -18 -55 -247 -55 -259 0 -5 26 -9 58 -9 l58 0 23 118
c12 64 25 127 28 140 5 21 2 22 -51 22 -36 0 -58 -5 -61 -12z"/>
<path d="M2191 2109 l71 -141 25 44 c14 23 47 87 74 141 l49 97 -60 0 c-55 0
-61 -2 -70 -25 -5 -14 -12 -25 -15 -25 -3 0 -10 11 -15 25 -9 23 -15 25 -70
25 l-61 0 72 -141z"/>
<path d="M2560 2239 c0 -7 12 -70 27 -141 l28 -128 115 0 116 0 23 118 c12 64
25 127 28 140 5 22 4 23 -53 20 l-59 -3 -25 -117 c-13 -65 -27 -118 -30 -118
-4 0 -18 53 -31 118 l-25 117 -57 3 c-40 2 -57 -1 -57 -9z"/>
<path d="M3121 2109 l71 -141 25 44 c14 23 47 87 74 141 l49 97 -60 0 c-55 0
-61 -2 -70 -25 -5 -14 -12 -25 -15 -25 -3 0 -10 11 -15 25 -9 23 -15 25 -70
25 l-61 0 72 -141z"/>
<path d="M3490 2239 c0 -7 12 -70 27 -141 l28 -128 57 0 c40 0 58 4 57 13 0 6
-12 68 -28 137 l-27 125 -57 3 c-40 2 -57 -1 -57 -9z"/>
</g>
</svg>
